<?xml version="1.0" encoding="UTF-8" standalone="no"?>
<svg
   xmlns:dc="http://purl.org/dc/elements/1.1/"
   xmlns:cc="http://creativecommons.org/ns#"
   xmlns:rdf="http://www.w3.org/1999/02/22-rdf-syntax-ns#"
   xmlns:svg="http://www.w3.org/2000/svg"
   xmlns="http://www.w3.org/2000/svg"
   xmlns:sodipodi="http://sodipodi.sourceforge.net/DTD/sodipodi-0.dtd"
   xmlns:inkscape="http://www.inkscape.org/namespaces/inkscape"
   id="svg728"
   style="shape-rendering:geometricPrecision;text-rendering:geometricPrecision;image-rendering:optimizeQuality"
   xml:space="preserve"
   viewBox="0 0 8268 11692"
   fill-rule="evenodd"
   version="1.1"
   sodipodi:docname="rock.svg"
   inkscape:version="0.92.5 (2060ec1f9f, 2020-04-08)"><sodipodi:namedview
   pagecolor="#ffffff"
   bordercolor="#666666"
   borderopacity="1"
   objecttolerance="10"
   gridtolerance="10"
   guidetolerance="10"
   inkscape:pageopacity="0"
   inkscape:pageshadow="2"
   inkscape:window-width="1848"
   inkscape:window-height="1025"
   id="namedview3783"
   showgrid="false"
   inkscape:zoom="0.070817653"
   inkscape:cx="8169.8627"
   inkscape:cy="6506.5241"
   inkscape:window-x="72"
   inkscape:window-y="27"
   inkscape:window-maximized="1"
   inkscape:current-layer="svg728" />
  <defs
   id="defs729">
    <style
   id="style730"
   type="text/css">
    .fil0 {fill:#1F1A17}
   </style>
  </defs>
  <g
   id="Layer 1"
   transform="matrix(2.019 0 0 2.0187 -3626.9 -5219.4)">
    <path
   id="path732"
   d="m3941 2697c37 0 97-7 181-21 83-14 143-21 180-21 102 0 188 14 257 42 70 28 123 88 160 181 83-74 204-112 361-112 93 0 183 12 271 35s150 40 187 49c176 268 264 569 264 903 0 166-18 319-55 458 74 268 125 461 153 576 27 116 41 257 41 424-74 213-217 447-430 701-213 255-412 493-598 716-92 37-157 106-194 208-37 185-74 366-111 542l28 430c-139 195-315 327-528 396s-463 104-750 104c-176 0-384-55-625-167-241-111-384-171-431-180l-55-70v-256c0-88 4-179 14-271 0-195-12-345-35-452-23-106-86-215-188-326-83-232-152-472-208-722-55-250-83-500-83-750 0-343 65-658 194-945 111-129 222-264 334-403 148-148 305-222 472-222 18-92 67-178 146-257 78-78 148-136 208-173s132-56 215-56h181c120 0 194-51 222-153 28-101 102-171 222-208zm0 83c-83 37-136 105-159 202-24 97-35 173-35 229 65 509 129 1014 194 1514l56-42 55 125c37 9 102 14 195 14 65 0 116-18 153-56 9-64-5-106-42-125-37-18-88-27-153-27-92 0-153-14-180-42 55-56 97-97 125-125 194-37 310 9 347 139l55-306c-37-74-97-111-180-111-130 28-218 42-264 42s-83-28-111-83h291c-120-176-215-320-284-431-70-111-104-185-104-222 0-65 20-134 62-209 42-74 86-143 132-208 74-74 185-111 333-111 56 0 98 5 125 14v-83c-27-47-64-79-111-98-46-18-97-27-153-27-37 0-97 4-180 13-83 10-139 14-167 14zm1e3 70c-55 9-97 41-125 97s-41 116-41 181c92 92 238 182 437 270s331 165 396 230c0-93-2-186-7-278-5-93-26-188-63-285s-88-157-152-180c-65-24-158-35-278-35h-167zm-541 222c-75 19-128 51-160 97-33 47-63 116-90 209 166 148 361 222 583 222 28-19 51-46 69-84-9-9-14-18-14-27-37 9-69 18-97 27 37-55 74-111 111-166-111-130-189-211-236-243-46-33-102-44-166-35zm-1070 56c-130 37-236 85-319 145-84 61-130 142-139 243 148 204 247 433 298 688s77 549 77 882l83 83c46-92 97-190 153-291 55-28 111-42 167-42 55 0 106 14 152 42 0-343-11-639-34-889-24-250-58-452-105-604-46-153-99-232-159-237-60-4-118-11-174-20zm695 291c0 139 57 269 173 389 116 121 213 213 292 278s183 102 312 111c130 9 218 42 264 97-28 19-74 28-139 28-74 0-125 9-152 28-19 37-7 81 34 132 42 51 86 99 132 146-28 37-62 41-104 13-42-27-76-27-104 0 0 130 21 248 62 355 42 106 109 215 202 326-102 0-181-60-236-181-56-120-98-222-125-305-195 0-373 83-535 250s-317 329-465 486c-47 83-70 204-70 361 0 74 5 146 14 215 9 70 19 137 28 202-74-46-144-97-208-153-28-83-42-190-42-319 0-102 18-176 55-223 0 84 14 144 42 181 0-83 14-162 42-236s55-148 83-222l-333-84c-19 37-58 65-118 84-60 18-100 37-118 55-158 28-283-32-375-180-84-195-144-329-181-403-46-19-130-28-250-28-148 9-255 14-319 14-10 55-14 130-14 222 0 158 9 296 28 417 18 120 46 257 83 410 37 152 86 324 146 513 60 190 134 318 222 382 88 65 174 107 257 125 83 19 162 28 236 28 65 0 139-7 222-21 84-14 144-25 181-34 37 0 85-19 146-56 60-37 104-46 132-28-37 74-58 167-63 278s-2 176 7 194c19-111 35-206 49-284 14-79 53-146 118-202 92-27 148-18 166 28l-83 778c0 222 37 393 111 514 74 9 153-16 236-77 84-60 144-104 181-132-37-83-56-189-56-319 0-65 9-167 28-306 19-138 28-240 28-305-111-19-204-30-278-35-74-4-120-44-139-118 37-18 104-14 202 14 97 28 168 28 215 0-148 0-259-12-334-35-74-23-148-85-222-187-9-37-14-79-14-125 74 46 148 95 223 146 74 51 185 76 333 76 92 0 194-21 305-62 112-42 218-91 320-146 46-74 213-276 500-604 287-329 449-605 486-827-9-28-51-204-125-528s-139-555-194-694l-125 125c-37 28-81 55-132 83s-95 42-132 42-79-28-125-83c55-84 104-144 146-181 41-37 85-60 131-69l-208 250c139-65 236-118 292-160 55-42 83-109 83-202l-486-236c-9 10-35 54-76 132-42 79-91 128-146 146-121 28-243 14-368-42-125-55-229-129-313-222-18-120 14-208 97-264-46 10-92 98-138 264zm-1209 222c-65-18-132-9-201 28-70 37-137 74-202 111-18 65-37 130-55 195l-42-70c-74 47-129 91-166 132-37 42-88 118-153 229 55 47 129 79 222 98-37-56-69-116-97-181 176 56 296 176 361 361s125 357 180 514c56 158 130 236 223 236l14-139c9-27 30-71 62-132 32-60 86-90 160-90 0-139-7-292-21-458-14-167-58-347-132-542l-153-292zm-875 737l-55 361 527 14c10-121-41-209-152-264-111-37-218-74-320-111zm2347 152l-97-14 97 14zm-750 403c56 37 107 37 153 0-18 0-46-9-83-28-37-18-60-9-70 28zm403 28v97l84-42c-28-18-56-37-84-55zm-403 55c-46-9-74 12-83 63s-18 81-28 90c37 19 102 28 195 28 55 0 111-9 166-28v-55c0-65-32-98-97-98h-153zm-513 84l-14 153c83 18 125-28 125-139l-111-14zm444 944l-14-83 14 139v-56zm1028 959l55-153-55 153zm-1139-70l-139 56 139-56zm958 875c0-129 12-301 35-514s35-333 35-361c-56 195-84 408-84 639 0 111 5 190 14 236zm-680-847c-84 278-125 565-125 861v167c18 74 27 129 27 166 56-9 116-23 181-41-65-111-97-269-97-473v-256c0-88 4-179 14-271v-153zm-1292 28c46 305 69 602 69 889 93 27 244 83 452 166 208 84 373 125 493 125v-1125c-111 56-206 88-285 97-79 10-243 28-493 56-65 0-102-39-111-118s-51-109-125-90zm847 14l-69-14 69 14zm1278 263l-42 403 42-403zm833-3513l70-70-70 70zm-1902 777l319 14c-46 56-111 84-194 84-84 0-125-33-125-98zm2111-625c0 56-42 111-125 167-84 56-130 88-139 97-9-9-37-14-84-14 75-18 144-48 209-90s111-95 139-160zm-2764 834l347-56c-28 28-81 46-160 56-78 9-141 9-187 0z"
   class="fil0" />
  </g>
<metadata
   id="metadata3780"><rdf:RDF><cc:Work><dc:format>image/svg+xml</dc:format><dc:type
         rdf:resource="http://purl.org/dc/dcmitype/StillImage" /><cc:license
         rdf:resource="http://creativecommons.org/licenses/publicdomain/" /><dc:publisher><cc:Agent
           rdf:about="http://openclipart.org/"><dc:title>Openclipart</dc:title></cc:Agent></dc:publisher><dc:title>Sign language S, fist</dc:title><dc:date>2006-11-03T07:06:12</dc:date><dc:description>From http://commons.wikimedia.org/wiki/Image:Sign_language_S.svg</dc:description><dc:source>http://openclipart.org/detail/1210/sign-language-s-fist-by-liftarn</dc:source><dc:creator><cc:Agent><dc:title>liftarn</dc:title></cc:Agent></dc:creator><dc:subject><rdf:Bag><rdf:li>clip art</rdf:li><rdf:li>clipart</rdf:li><rdf:li>externalsource</rdf:li><rdf:li>fist</rdf:li><rdf:li>hand</rdf:li><rdf:li>image</rdf:li><rdf:li>media</rdf:li><rdf:li>png</rdf:li><rdf:li>public domain</rdf:li><rdf:li>sign</rdf:li><rdf:li>svg</rdf:li><rdf:li>wikimedia commons</rdf:li></rdf:Bag></dc:subject></cc:Work><cc:License
       rdf:about="http://creativecommons.org/licenses/publicdomain/"><cc:permits
         rdf:resource="http://creativecommons.org/ns#Reproduction" /><cc:permits
         rdf:resource="http://creativecommons.org/ns#Distribution" /><cc:permits
         rdf:resource="http://creativecommons.org/ns#DerivativeWorks" /></cc:License></rdf:RDF></metadata><path
   style="fill:#ffffff;stroke-width:14.12077332"
   d="m 2959.1517,11537.015 c -19.4161,-3.533 -95.6682,-16.595 -169.4493,-29.027 -282.2703,-47.563 -515.586,-131.07 -1135.442,-406.39 -233.697,-103.8 -470.9162,-204.425 -527.1541,-223.609 -89.0213,-30.368 -109.827,-44.396 -160.80824,-108.426 l -58.55752,-73.545 9.10477,-412.093 c 5.0076,-226.651 13.01528,-532.8252 17.79483,-680.3873 C 947.39213,9209.8374 910.95916,8834.4333 838.60949,8614.041 798.30565,8491.2671 701.218,8325.7744 582.30755,8177.156 489.01239,8060.5526 483.35959,8048.8369 403.41248,7806.3868 163.75562,7079.5958 14.692687,6432.9757 -56.320731,5812.1101 c -30.93354,-270.4499 -42.274467,-836.0022 -21.945014,-1094.3599 37.933714,-482.082 142.015202,-942.8719 304.029125,-1345.999 61.84707,-153.8893 70.09457,-166.0391 301.38824,-443.9867 130.79063,-157.1724 289.638,-349.3114 352.99418,-426.9756 242.8995,-297.7547 522.4694,-478.0394 834.0899,-537.8745 56.9897,-10.9429 127.7218,-19.896 157.1823,-19.896 52.1257,0 54.0167,-1.8019 70.3941,-67.0737 45.1673,-180.0125 179.3759,-373.3462 390.6985,-562.8197 217.6195,-195.1192 337.9848,-272.9404 499.5541,-322.98273 58.9588,-18.26109 160.9887,-26.56964 423.6232,-34.49671 216.6608,-6.53944 361.7913,-16.90396 388.3213,-27.73201 123.9325,-50.58246 192.1211,-131.09999 247.454,-292.19504 82.0603,-238.90919 258.3723,-375.16233 529.1885,-408.95471 77.6642,-9.69093 236.5229,-31.79873 353.0193,-49.12845 361.8451,-53.82721 682.8444,-20.93832 866.6993,88.80013 84.667,50.53566 186.1954,168.71663 224.1563,260.92246 13.5769,32.97819 29.8751,59.98417 36.2182,60.01329 6.343,0.0297 31.7604,-15.12216 56.4831,-33.66949 150.273,-112.73696 330.8719,-164.14658 611.8065,-174.15796 260.9054,-9.29761 366.312,4.22074 715.7848,91.79909 l 265.9453,66.64624 70.5295,116.76521 c 158.2763,262.03435 296.0629,603.00188 369.3776,914.06358 63.7171,270.3413 84.8672,467.2979 84.9158,790.7633 0.042,318.5893 -14.7422,478.9363 -69.4777,753.2435 l -34.7785,174.2919 105.3076,390.539 c 238.624,884.9504 253.0197,955.7064 275.7381,1355.2661 l 14.6144,257.0328 -43.1381,109.2795 c -95.8683,242.8577 -285.8253,584.9284 -464.9183,837.2157 -148.6882,209.4562 -268.9353,358.2797 -912.1713,1128.9455 -550.0199,658.983 -664.7848,789.3208 -721.1481,819.0048 -105.8577,55.7502 -220.6797,171.4491 -276.5815,278.6936 -43.6326,83.7067 -63.9705,164.6363 -164.6086,655.0212 l -114.8254,559.5143 28.7979,427.9119 28.7979,427.912 -37.3887,53.952 c -148.033,213.612 -406.1419,442.21 -672.1752,595.323 -258.5818,148.824 -707.9329,271.197 -1204.1734,327.935 -179.1686,20.485 -784.0095,39.142 -854.3068,26.352 z m 197.6908,-1403.036 V 8991.1087 l -116.6315,53.8839 c -252.0387,116.4423 -337.8542,133.2645 -1130.3022,221.5716 -318.1148,35.4494 -355.6681,37.1523 -409.1329,18.5534 -72.6209,-25.2626 -113.3443,-91.2453 -138.3533,-224.1682 -13.6639,-72.6229 -27.4439,-102.8427 -63.2645,-138.739 -39.5669,-39.6504 -55.4777,-45.8925 -116.9784,-45.8925 -39.1504,0 -73.911,4.7657 -77.2459,10.5906 -3.3348,5.8248 5.6238,93.1971 19.9081,194.1606 57.3469,405.3365 106.1732,1024.9209 115.6395,1467.4159 l 2.9964,140.063 63.5435,20.576 c 138.1994,44.751 431.8156,153.048 734.2801,270.829 534.641,208.193 827.3522,290.676 1048.4674,295.449 l 67.0737,1.447 z m 512.0276,1085.932 c 71.7571,-15.783 150.9844,-35.294 176.0605,-43.358 l 45.5928,-14.662 -40.4417,-80.199 c -53.9693,-107.024 -91.9717,-233.983 -123.5194,-412.655 -22.4509,-127.152 -26.07,-226.061 -26.07,-712.48 0,-310.657 5.174,-691.9179 11.4977,-847.2464 7.8808,-193.5754 6.955,-275.3665 -2.9429,-260.0075 -23.0571,35.779 -110.3905,384.0235 -148.4239,591.8457 -107.0918,585.1692 -137.5121,1291.5382 -71.301,1655.6372 15.18,83.476 32.433,151.785 38.3401,151.798 5.907,0.01 69.4505,-12.89 141.2078,-28.673 z m 758.842,-144.635 c 77.0494,-37.576 445.4679,-290.206 519.9702,-356.552 2.5091,-2.234 -11.0604,-53.903 -30.1545,-114.82 -88.0502,-280.91 -94.5141,-564.922 -25.3385,-1113.3325 57.182,-453.3255 70.6199,-670.7367 41.4575,-670.7367 -11.4697,0 -83.9282,-9.2915 -161.0187,-20.6478 -77.0907,-11.3564 -209.9819,-27.6118 -295.3137,-36.1234 -197.493,-19.699 -261.3628,-46.9884 -317.6294,-135.7115 -23.4464,-36.9711 -42.6299,-74.8281 -42.6299,-84.1262 0,-48.3189 146.578,-44.9783 364.8192,8.3142 191.5052,46.7639 359.8323,55.1961 433.0044,21.6911 23.2993,-10.6686 36.008,-20.0792 28.2416,-20.9128 -7.7664,-0.8331 -109.8802,-7.4121 -226.9196,-14.6193 -399.2185,-24.5837 -544.126,-74.1522 -717.7245,-245.5119 -147.0442,-145.1475 -175.1596,-192.7729 -186.6241,-316.1266 -5.2302,-56.2747 -5.3649,-102.3176 -0.2992,-102.3176 5.0656,0 120.8253,72.7939 257.2439,161.7643 261.9564,170.8446 342.9306,209.0876 514.2438,242.8708 151.1999,29.817 458.6276,30.1976 607.1932,0.7512 221.5671,-43.9146 509.6989,-151.6535 821.8365,-307.303 168.6247,-84.0858 175.7884,-89.546 246.2078,-187.66 89.1361,-124.1916 432.1904,-536.1461 790.4618,-949.2211 486.8672,-561.3415 745.1625,-914.6408 921.3706,-1260.2614 91.6082,-179.6839 197.7179,-471.792 201.3637,-554.3325 2.1081,-47.7263 -267.0282,-1213.6675 -390.5277,-1691.828 -65.0797,-251.973 -174.231,-622.2354 -208.8809,-708.5644 -10.7213,-26.7117 -23.7952,-60.6929 -29.053,-75.5138 -8.1589,-22.9977 -29.6772,-7.3124 -146.8227,107.0223 -86.547,84.4703 -185.0141,163.2761 -266.502,213.2882 -302.6385,185.7406 -434.9699,197.8422 -576.6629,52.7353 l -54.1116,-55.4151 35.5823,-53.7681 c 67.1906,-101.5319 211.3354,-272.221 270.1678,-319.9193 67.3212,-54.5803 174.0611,-111.5959 195.5259,-104.441 7.9793,2.6598 -72.1361,108.7256 -178.0341,235.7018 -105.898,126.9761 -189.6729,233.7347 -186.1664,237.2412 8.4778,8.4779 325.7199,-150.7149 465.7978,-233.7384 192.702,-114.2134 279.3871,-244.1627 282.7758,-423.9083 l 1.4515,-76.9884 -487.1667,-236.969 c -267.9416,-130.3329 -490.9727,-237.3818 -495.6245,-237.8865 -4.652,-0.5041 -52.3096,79.3198 -105.9058,177.3879 -105.3606,192.7838 -204.5087,315.6497 -289.8512,359.1882 -122.7584,62.6266 -374.0668,67.2081 -590.7906,10.7702 -228.5886,-59.5275 -556.0382,-249.1072 -739.6404,-428.221 l -96.6361,-94.2737 4.8511,-132.2287 c 2.6681,-72.7257 0.8741,-127.77 -3.9859,-122.3206 -27.6345,30.9834 -82.9251,245.2334 -82.7393,320.6132 0.4307,174.6987 86.5999,407.7421 214.0535,578.9035 128.6752,172.8023 583.9898,617.2803 771.3809,753.0222 143.024,103.6031 319.0195,159.4548 606.4447,192.4535 244.759,28.1005 414.527,86.7582 480.2325,165.9286 29.3813,35.402 -43.3657,55.4408 -248.0055,68.3149 -179.5565,11.2962 -271.4282,28.9131 -309.8619,59.4178 -25.055,19.8861 -21.8733,130.7228 5.2887,184.2322 30.9447,60.9613 104.3255,151.5616 222.3683,274.5483 96.1593,100.1869 97.6362,102.8474 72.5049,130.6172 -34.4509,38.0677 -92.2489,35.7916 -176.6051,-6.9549 -76.7417,-38.888 -121.453,-43.6973 -175.8453,-18.9145 -33.2589,15.1537 -35.9601,23.3914 -35.883,109.4359 0.113,126.5775 34.9083,348.8848 78.6582,502.551 61.6512,216.5415 229.3662,524.5907 391.3837,718.8706 l 57.8045,69.3151 -62.7438,-9.9052 c -93.9581,-14.8327 -181.8938,-62.7765 -257.901,-140.6109 -78.606,-80.4959 -184.7198,-289.6115 -314.6227,-620.0186 l -81.888,-208.2814 h -73.5943 c -167.936,0 -430.8322,77.2382 -600.6756,176.477 -213.9666,125.0198 -363.64,266.1334 -1069.4997,1008.3343 -306.4184,322.1944 -326.8939,351.8366 -373.5399,540.7682 -63.1244,255.6745 -64.4722,637.7153 -3.7761,1070.3335 17.9789,128.146 30.9684,235.1237 28.8657,237.7282 -5.9338,7.35 -202.6483,-128.1256 -303.6791,-209.1411 -62.2381,-49.9083 -96.4814,-89.1346 -108.9619,-124.818 -40.9058,-116.9555 -63.8871,-309.5092 -65.1966,-546.2642 -1.1749,-212.2941 2.368,-251.8087 30.6327,-341.712 17.5783,-55.9125 37.6327,-105.1646 44.5656,-109.4494 6.9329,-4.2847 16.8047,25.5759 21.9378,66.357 13.0539,103.714 45.9189,215.733 68.8856,234.7936 16.0121,13.2889 21.0521,-2.9004 29.098,-93.4679 14.5894,-164.2221 39.7528,-256.7569 148.9866,-547.8764 54.7312,-145.8647 97.7834,-266.9363 95.6715,-269.0483 -2.1121,-2.1121 -155.3428,-41.818 -340.5127,-88.2355 l -336.6726,-84.3955 -43.078,49.0629 c -44.7644,50.9839 -132.1152,101.212 -229.1901,131.7885 -31.0657,9.785 -103.3846,40.0907 -160.7085,67.3462 -99.3253,47.2255 -109.6157,49.2045 -218.872,42.0937 -140.294,-9.1309 -248.6308,-48.269 -359.467,-129.862 -129.8729,-95.6069 -199.3471,-204.0536 -348.646,-544.2234 -73.2858,-166.9782 -157.1898,-351.2424 -186.4531,-409.4762 -73.8039,-146.869 -74.7165,-147.1108 -554.49352,-146.9598 -462.34704,0.1454 -643.42707,12.7596 -657.44306,45.7982 -18.54732,43.7198 -24.01527,646.374 -7.9151,872.3702 35.77629,502.188 177.03158,1176.66 404.8076,1932.8932 237.59045,788.8178 350.99245,985.6292 687.09628,1192.4693 148.4831,91.3772 315.8953,150.8098 526.0327,186.7457 143.1602,24.482 207.9503,27.8779 410.0762,21.4936 233.2682,-7.3678 299.7139,-16.0282 670.9527,-87.4502 192.4806,-37.0312 237.2352,-52.4659 361.8849,-124.8046 101.5448,-58.9303 179.8374,-85.2364 222.1069,-74.6273 l 31.998,8.0309 -40.0582,119.7645 c -22.0321,65.8706 -49.44,182.0047 -60.9062,258.0762 -21.8417,144.9052 -27.0222,513.4115 -7.8997,561.9347 13.6102,34.5357 10.6834,47.4325 78.5125,-345.9589 62.0574,-359.9164 108.2494,-467.3623 256.5026,-596.6434 41.9444,-36.5767 174.7603,-57.6895 244.6031,-38.8829 106.5025,28.6781 105.9213,-12.1543 12.0637,847.3379 -74.7643,684.6461 -83.1831,790.6209 -76.2813,960.2129 12.8229,315.081 62.4895,553.454 159.563,765.816 l 51.6209,112.929 113.7869,-5.988 c 95.0541,-5.001 131.2221,-14.49 219.6927,-57.635 z m 691.7358,-1076.3567 c 8.5989,-116.4964 34.1452,-389.7333 56.7698,-607.1932 22.6244,-217.4599 44.6523,-446.2164 48.9509,-508.3478 l 7.8156,-112.9662 -21.9998,56.4831 c -33.3227,85.5541 -101.2643,440.6361 -128.3389,670.7367 -27.1127,230.4236 -35.2694,827.2211 -13.2203,967.2731 l 13.3388,84.724 10.5248,-169.449 c 5.7886,-93.197 17.5603,-264.764 26.1591,-381.2607 z M 3378.9021,6977.874 c -4.3721,-57.808 -14.9513,-116.5858 -23.5097,-130.6172 -12.7156,-20.8473 -14.3251,-16.4756 -8.8034,23.9113 3.7164,27.1825 10.6586,85.9602 15.4272,130.6172 12.6586,118.5467 26.2089,99.3589 16.8859,-23.9113 z M 2221.8272,5323.0147 c 13.3816,-132.3091 22.6518,-165.6297 77.8386,-279.7799 97.0018,-200.6414 169.2306,-268.891 305.0963,-288.2887 l 64.9137,-9.2678 4.0562,-197.5341 c 5.1208,-249.3689 -30.6209,-771.6451 -67.7848,-990.5115 -72.2242,-425.3438 -170.8305,-719.1029 -370.6153,-1104.1038 -86.0311,-165.7884 -165.3363,-310.3499 -176.2339,-321.2476 -24.1842,-24.184 -195.7897,-26.8863 -279.0309,-4.3939 -67.4782,18.2331 -476.6481,233.8075 -520.171,274.0561 -20.8669,19.297 -45.7977,85.6299 -78.717,209.4407 l -48.1778,181.1993 -36.5468,-64.6455 c -20.1007,-35.5548 -41.6612,-64.6711 -47.9121,-64.7028 -24.6961,-0.127 -191.20936,122.8076 -276.02457,203.7816 -49.33449,47.1002 -122.92216,133.2944 -163.52814,191.5426 -93.65167,134.3408 -205.6979,316.0036 -205.6979,333.5022 0,28.4337 166.92867,118.9702 299.27308,162.3156 76.2115,24.9607 142.18076,41.7687 146.59834,37.3511 4.41759,-4.4177 -7.6522,-32.8774 -26.82175,-63.244 -67.34132,-106.6755 -151.28991,-286.3548 -133.78884,-286.3548 40.20915,0 253.64867,119.4124 338.41678,189.3331 109.0734,89.9688 219.0642,232.0218 285.2789,368.4374 26.3882,54.365 141.4481,365.728 255.6887,691.9179 216.3763,617.8175 268.87,739.9134 365.1383,849.2799 60.3733,68.5877 173.6773,131.7392 236.7862,131.9758 36.3759,0.1412 36.9399,-1.492 51.9657,-150.0589 z m 416.1551,26.7133 c 43.6778,-41.8461 66.7996,-109.4859 66.9167,-195.7567 l 0.085,-58.0059 -112.2034,-13.0681 c -130.8644,-15.2414 -119.7986,-29.0721 -135.6101,169.4952 -7.8843,99.0154 -5.9035,127.8601 9.4885,138.1701 33.0657,22.1484 129.6061,-0.8614 171.3296,-40.8346 z m 1322.0337,-109.0082 75.9536,-23.8569 -7.1201,-94.2279 c -14.8115,-196.0195 -47.5926,-217.8581 -338.9179,-225.7852 -114.5382,-3.1166 -223.9748,-1.7202 -243.1924,3.103 -54.6116,13.7066 -89.6329,62.0728 -107.2727,148.1488 -8.9215,43.5331 -24.6847,99.6639 -35.0296,124.7352 -22.2508,53.9264 -20.0861,55.7765 96.1182,82.1457 119.987,27.2277 454.5197,18.6993 559.4609,-14.2627 z m -700.1492,-325.2787 148.1984,-282.4155 82.67,-35.2569 c 72.0925,-30.7457 103.4478,-35.2625 245.059,-35.3019 140.9639,-0.042 172.2266,4.4006 236.9526,33.6505 41.0102,18.5324 78.1412,30.118 82.5135,25.7458 12.8597,-12.8598 -21.2919,-1147.8789 -44.489,-1478.579 -83.0645,-1184.1736 -293.7182,-1965.2407 -542.272,-2010.6494 -19.966,-3.6476 -115.9585,-14.405 -213.317,-23.9052 -171.1567,-16.7014 -180.2699,-16.1945 -275.3551,15.317 -348.71,115.5633 -621.3311,289.8434 -721.9392,461.518 -40.2288,68.6455 -89.4996,214.8766 -89.4996,265.6268 0,18.009 41.0909,94.2027 91.313,169.3192 232.8946,348.3371 415.4148,799.5018 507.5322,1254.55 83.844,414.179 132.4531,887.6054 144.5038,1407.3878 l 8.348,360.0797 86.0505,88.1052 c 47.3277,48.4578 90.4339,83.4067 95.7915,77.6642 5.3576,-5.7425 76.4302,-137.5278 157.9394,-292.8563 z m 1160.4721,39.4206 c 42.8873,-21.0338 77.977,-42.3744 77.977,-47.4234 0,-9.2864 -148.7281,-112.0238 -162.1717,-112.0238 -4.0026,0 -7.2775,44.4804 -7.2775,98.8454 0,54.365 3.0364,98.8454 6.7476,98.8454 3.7111,0 41.8371,-17.2095 84.7246,-38.2436 z m -641.4811,-180.991 c 47.3106,-24.4652 54.741,-49.0601 14.8217,-49.0601 -14.7617,0 -60.8307,-15.8237 -102.3756,-35.1639 -91.6324,-42.6572 -116.57,-43.8289 -153.2005,-7.1984 -41.3301,41.3301 -34.8406,64.8461 24.7113,89.5472 68.3619,28.3551 163.2439,29.1787 216.0431,1.8752 z M 5107.1905,4498.396 c 24.9876,-7.1663 69.364,-28.8671 98.6142,-48.224 58.2808,-38.5683 70.0619,-79.5779 52.8265,-183.886 -11.0447,-66.8423 -69.9151,-125.5128 -148.8392,-148.3338 -29.538,-8.541 -142.6664,-21.4003 -251.3963,-28.5764 -200.3101,-13.2201 -278.1306,-27.688 -322.1802,-59.8979 -21.8571,-15.9821 -11.5304,-30.5467 101.2566,-142.8111 l 125.5956,-125.0139 115.9704,-15.311 c 265.3748,-35.0365 468.4955,53.7914 545.7385,238.66 11.7071,28.0188 24.976,47.2529 29.4866,42.7423 4.5106,-4.5106 32.4333,-142.7935 62.0503,-307.2954 59.4102,-329.9816 60.0949,-319.7822 -27.6828,-412.4095 -110.4961,-116.601 -201.626,-134.4416 -442.0051,-86.5319 -95.7601,19.0857 -232.2431,38.804 -303.2959,43.8183 -117.15,8.2674 -133.8241,6.2508 -178.9596,-21.6445 -27.3752,-16.9188 -62.7207,-51.1953 -78.5457,-76.1698 l -28.7725,-45.4085 288.3896,-7.0604 288.3895,-7.0604 -240.1453,-360.0797 c -275.259,-412.7296 -463.9731,-722.1982 -506.2066,-830.1181 -74.4828,-190.3272 -4.9536,-410.8951 254.6704,-807.8915 114.0285,-174.36344 160.366,-218.15111 300.0025,-283.49491 144.8064,-67.76309 267.2415,-87.00067 514.0009,-80.76215 l 215.3418,5.44423 v -86.90024 c 0,-81.71955 -3.474,-90.84681 -58.2715,-153.10014 -69.4691,-78.9211 -165.2897,-130.44417 -292.897,-157.49188 -128.2923,-27.19291 -240.0238,-25.53301 -601.9837,8.94313 -309.0402,29.43561 -311.0244,29.83828 -381.2609,77.36698 -133.3698,90.25087 -198.8755,205.63319 -252.2083,444.24225 -66.012,295.33533 -66.2901,289.49763 60.8844,1277.75023 62.9644,489.2848 149.3053,1162.8457 191.8687,1496.802 42.5636,333.9563 80.7177,621.8559 84.7871,639.777 l 7.3988,32.5839 55.9321,-44.2992 55.9323,-44.2991 12.8479,32.8965 c 7.0663,18.0931 32.02,75.2688 55.4526,127.057 l 42.6046,94.1607 75.2427,8.3956 c 195.4635,21.8101 389.6953,19.1485 479.366,-6.5687 z M 1247.6869,4276.4761 c -7.3761,-124.5716 -40.212,-211.2336 -110.267,-291.0219 -85.5738,-97.4632 -163.1693,-136.7151 -506.66665,-256.2994 -288.23703,-100.3462 -334.73363,-112.9714 -343.46035,-93.2601 -12.12107,27.3782 -114.68762,707.6299 -107.73219,714.512 2.6725,2.6442 217.72975,10.6784 477.90499,17.8537 260.17524,7.1753 500.8683,14.0822 534.8735,15.3489 l 61.8276,2.3028 z M 7690.4044,1646.4821 C 7670.3146,1295.5646 7626.7341,1100.6804 7516.73,869.83961 7459.1154,748.93709 7339.9364,629.07003 7244.8063,596.34627 c -131.9099,-45.37561 -326.1499,-65.24848 -635.4348,-65.01184 -326.9116,0.25007 -368.9757,9.00868 -447.3219,93.14123 -79.7765,85.66842 -152.1219,287.32634 -152.6022,425.36864 -0.2034,58.2983 3.0541,62.5738 116.2876,152.6531 209.1191,166.3579 393.728,270.8524 850.7766,481.5665 267.374,123.268 490.8337,248.7288 623.8707,350.2705 l 96.2887,73.4931 4.3444,-100.0555 c 2.3895,-55.0306 -2.3856,-217.611 -10.611,-361.2899 z m -1708.2782,363.8385 c 74.4419,-74.4418 98.4732,-122.3676 78.9734,-157.4973 -9.1075,-16.4073 -16.8546,-31.1861 -17.2156,-32.8416 -0.3615,-1.6556 -35.3102,6.212 -77.6643,17.4833 -42.3543,11.2715 -81.8561,20.5689 -87.7819,20.6611 -5.9259,0.099 36.6581,-70.8155 94.6311,-157.5729 l 105.4053,-157.7404 -87.1204,-99.9637 C 5816.592,1242.3242 5622.3696,1057.7073 5545.4032,1018.9537 5436.7618,964.25133 5309.8387,956.13455 5191.4047,996.31535 5032.6288,1050.1829 4940.8248,1129.717 4866.361,1277.916 c -48.1761,95.8809 -113.8711,275.6932 -113.8711,311.6741 0,29.7738 150.5634,147.4974 303.5966,237.378 228.9008,134.4399 534.9088,220.5687 807.3281,227.2302 64.6785,1.5816 78.2796,-3.4456 118.7116,-43.8777 z M 4722.0256,1205.208 c 32.333,-29.1241 49.8956,-52.9529 39.0281,-52.9529 -39.7215,0 -165.4221,176.4352 -163.0788,228.9 0.4476,10.0174 15.3146,-13.5582 33.0385,-52.3904 17.7238,-38.8321 58.6793,-94.4326 91.0122,-123.5567 z"
   id="path3785"
   inkscape:connector-curvature="0" /><path
   style="fill:#ffffff;stroke-width:14.12077332"
   d="m 3375.2725,4103.5312 c -69.7357,-21.7696 -133.7054,-97.3059 -133.7054,-157.8811 0,-14.5974 300.3563,-7.9735 529.0288,11.6669 l 98.3451,8.4467 -41.862,34.8642 c -80.4253,66.9809 -184.0777,105.2738 -300.3372,110.9553 -59.7657,2.9206 -127.9269,-0.7028 -151.4693,-8.052 z"
   id="path3787"
   inkscape:connector-curvature="0" /><path
   style="fill:#ffffff;stroke-width:14.12077332"
   d="m 2020.1203,4344.428 c 15.5328,-7.5669 136.2654,-30.3891 268.2947,-50.7161 132.0292,-20.327 255.939,-39.9694 275.355,-43.6498 81.9979,-15.5432 -77.8839,54.1236 -167.0027,72.7696 -116.2697,24.3268 -417.7349,41.6123 -376.647,21.5963 z"
   id="path3789"
   inkscape:connector-curvature="0" /><path
   style="fill:#ffffff;stroke-width:0.88254833"
   d="m 6964.0248,3193.567 c -10.0214,-8.2325 -34.7417,-15.9259 -64.3964,-20.0412 -19.8837,-2.7594 -60.6801,-5.3536 -92.6675,-5.8926 -3.7149,-0.063 -1.5516,-0.818 13.6795,-4.7764 144.4387,-37.5381 282.268,-98.9106 406.4135,-180.9676 121.404,-80.245 210.4395,-181.1657 265.2726,-300.6832 7.9216,-17.2666 7.9119,-17.2712 6.0465,2.8483 -4.6834,50.5114 -27.2091,102.7385 -65.6193,152.1414 -25.6052,32.9332 -61.4485,68.95 -100.7575,101.245 -32.2972,26.5343 -54.1,42.2118 -123.0346,88.469 -137.622,92.3484 -204.7674,139.1037 -233.4637,162.5675 l -8.8552,7.2405 z"
   id="path3791"
   inkscape:connector-curvature="0" /></svg>